PathFileType	4	(X/Y/Z)	C:/Users/opensim2020/Desktop/walking_exp_matlab/subject02_walking12_straight_01.trc																																																																																																																												
DataRate	CameraRate	NumFrames	NumMarkers	Units	OrigDataRate	OrigDataStartFrame	OrigNumFrames																																																																																																																								
100	100	8	42	mm	100	586	178																																																																																																																								
Frame#	Time	LFHD			RFHD			LBHD			RBHD			C7			T10			CLAV			STRN			RBAK			LSHO			LUPA			LELB			LFRM			LWRA			LWRB			LFIN			RSHO			RUPA			RELB			RFRM			RWRA			RWRB			RFIN			LASI			RASI			LPSI			RPSI			LTHI			LKNE			LTIB			LANK			LHEE			LTOE			RTHI			RKNE			RTIB			RANK			RHEE			RTOE			*39			*40			*41		
		X1	Y1	Z1	X2	Y2	Z2	X3	Y3	Z3	X4	Y4	Z4	X5	Y5	Z5	X6	Y6	Z6	X7	Y7	Z7	X8	Y8	Z8	X9	Y9	Z9	X10	Y10	Z10	X11	Y11	Z11	X12	Y12	Z12	X13	Y13	Z13	X14	Y14	Z14	X15	Y15	Z15	X16	Y16	Z16	X17	Y17	Z17	X18	Y18	Z18	X19	Y19	Z19	X20	Y20	Z20	X21	Y21	Z21	X22	Y22	Z22	X23	Y23	Z23	X24	Y24	Z24	X25	Y25	Z25	X26	Y26	Z26	X27	Y27	Z27	X28	Y28	Z28	X29	Y29	Z29	X30	Y30	Z30	X31	Y31	Z31	X32	Y32	Z32	X33	Y33	Z33	X34	Y34	Z34	X35	Y35	Z35	X36	Y36	Z36	X37	Y37	Z37	X38	Y38	Z38	X39	Y39	Z39	X40	Y40	Z40	X41	Y41	Z41	X42	Y42	Z42
																																																																																																																															
90	0.89	-228.62749	1756.52686	-1099.62219	-248.35826	1731.41602	-959.24786	-349.14703	1671.06067	-1130.60681	-380.23236	1643.6748	-993.08392	-402.83954	1527.63843	-1067.05933	-447.83984	1251.24792	-1069.85852	-261.69101	1463.96667	-1069.90759	-205.36232	1292.87109	-1060.46729	-460.117	1351.30359	-1010.99829	-317.4866	1507.1333	-1242.93689	-296.5542	1309.64758	-1334.57776	-276.19937	1170.21509	-1354.15576	-236.26764	1044.11536	-1365.66675	-163.1514	933.49219	-1322.93237	-198.98621	927.07214	-1366.3728	-163.00681	872.30579	-1368.00818	-335.28058	1493.03076	-877.08301	-361.16449	1303.29944	-795.02478	-338.64185	1157.54053	-772.64032	-291.71002	1044.78113	-757.12262	-223.36877	928.30817	-781.6333	-268.91568	916.42267	-747.88629	-221.77347	860.52795	-749.15631	-205.55077	997.59882	-1192.73059	-218.379	983.8335	-939.09436	-418.31555	1039.15784	-1124.71631	-429.87537	1034.44067	-1009.50067	-274.20593	680.67462	-1242.3761	-317.37576	479.93466	-1211.75452	-374.78656	292.80176	-1213.77466	-375.62421	70.60066	-1169.71753	-417.1348	44.08421	-1122.81812	-218.37711	32.69941	-1164.43982	-237.03915	679.43243	-862.20898	-190.35526	487.72467	-879.82166	-320.9465	359.94791	-887.83429	-438.01501	209.64714	-931.33466	-483.84357	171.74338	-995.85889	-349.54691	87.02224	-886.74548	-348.35046	1807.86682	-1023.53613	NaN	NaN	NaN	NaN	NaN	NaN
91	0.9	-214.74181	1756.09692	-1099.77881	-234.8709	1730.84485	-959.37372	-335.78296	1671.69983	-1131.57922	-367.41479	1643.93066	-994.00439	-390.56461	1527.85095	-1068.46057	-435.8663	1251.40393	-1070.84009	-249.62527	1464.02771	-1071.16931	-193.42325	1292.83264	-1062.07239	-448.25024	1351.53052	-1012.48743	-305.0618	1507.64832	-1244.00269	-280.86139	1311.25854	-1336.33618	-256.98145	1172.34241	-1357.04175	-212.40694	1047.57703	-1367.91968	-134.76706	940.33734	-1324.67126	-170.62718	932.08307	-1367.79504	-132.60161	878.59393	-1368.97986	-323.49225	1492.7793	-878.38495	-351.15237	1302.94019	-796.55597	-329.2803	1157.39209	-773.9325	-284.32043	1044.04333	-757.80634	-218.1609	926.98419	-782.38135	-263.46201	915.2796	-748.32751	-217.69566	858.68634	-749.40472	-195.52608	996.49841	-1195.18225	-204.62834	984.50897	-941.9549	-407.31711	1039.21802	-1124.22424	-416.98727	1034.92957	-1008.72192	-269.36148	680.16138	-1243.06079	-315.5816	479.98178	-1211.94727	-373.84802	293.14166	-1213.6062	-375.5022	70.93439	-1169.51282	-416.94968	44.58967	-1122.50391	-218.26942	32.62778	-1164.57617	-219.1385	681.68732	-862.69928	-169.44362	489.79697	-881.71735	-293.98563	355.32175	-890.19464	-403.18832	199.41942	-934.3172	-447.53543	159.55663	-999.11572	-308.19214	82.44427	-889.85266	-334.54013	1808.39966	-1024.31812	NaN	NaN	NaN	NaN	NaN	NaN
92	0.91	-200.70247	1755.40063	-1100.05713	-221.79903	1729.83606	-959.54639	-322.41534	1672.14648	-1132.526	-354.97595	1644.0614	-995.02588	-378.19244	1527.88489	-1069.75574	-423.90518	1251.3761	-1071.58826	-237.4295	1463.88538	-1072.37671	-181.44936	1292.6228	-1063.63147	-436.44443	1351.67773	-1013.76703	-292.47867	1508.00647	-1245.08337	-265.53894	1312.64502	-1337.93494	-238.17215	1174.30469	-1359.56189	-188.95241	1051.0531	-1369.84058	-107.03641	946.95605	-1325.98242	-142.57405	937.09454	-1369.09583	-102.659	885.16718	-1369.8197	-311.73596	1492.13574	-879.56525	-341.4577	1302.44312	-797.97119	-320.16623	1156.9342	-775.11743	-277.01965	1043.11365	-758.73108	-212.7755	924.39752	-782.31091	-258.05643	914.09052	-748.72278	-212.80121	856.729	-749.54865	-185.60092	995.11926	-1197.69055	-191.1824	984.74585	-944.8526	-396.45261	1039.25098	-1123.36914	-404.56326	1035.57947	-1007.55933	-264.47757	679.59149	-1243.56812	-313.58304	480.07349	-1211.93738	-372.99463	293.74304	-1213.36023	-375.39243	71.32648	-1169.25305	-416.78964	45.19709	-1122.10046	-218.06253	32.55515	-1164.65759	-201.9751	683.67499	-863.12903	-149.05136	491.99716	-883.57458	-267.10922	350.58176	-892.64008	-367.82733	189.18201	-937.20673	-409.88702	146.83841	-1002.18134	-266.36166	78.06256	-892.69135	-320.23953	1808.41345	-1024.59839	NaN	NaN	NaN	NaN	NaN	NaN
93	0.92	-186.77133	1754.57617	-1100.10779	-208.42044	1728.65295	-959.97931	-308.93082	1672.43115	-1133.41846	-341.92264	1644.10913	-996.15131	-365.8407	1527.74451	-1071.12073	-411.815	1251.18311	-1072.20825	-225.18814	1463.44067	-1073.396	-169.41135	1292.14941	-1065.05176	-425.35059	1351.79419	-1015.04999	-279.93506	1508.09265	-1246.07019	-250.34517	1313.97266	-1339.9115	-219.66052	1176.12683	-1361.92578	-165.80835	1054.68689	-1371.66565	-79.64847	954.13702	-1327.44263	-115.03349	942.61218	-1370.15369	-73.21558	891.87457	-1370.43066	-299.94415	1491.58374	-880.74255	-331.02127	1302.20068	-799.18982	-311.41138	1156.47217	-776.38531	-269.7471	1041.98828	-759.66144	-207.03107	922.35815	-782.61615	-252.61334	912.81799	-749.08325	-208.82683	854.56549	-749.73199	-176.19345	993.42352	-1200.16968	-178.46227	984.28821	-947.64404	-385.60507	1039.12305	-1122.35315	-392.02603	1036.07642	-1006.38062	-259.57111	678.98895	-1243.88525	-311.29425	480.20438	-1211.80054	-372.25604	294.67288	-1213.07483	-375.30185	71.76525	-1168.9491	-416.50717	45.68077	-1121.54724	-217.88545	32.68051	-1164.8114	-185.20813	685.58801	-863.23419	-129.71449	493.58957	-885.22461	-240.30107	345.68381	-895.10242	-331.85162	178.78726	-939.823	-370.79449	133.81508	-1005.03137	-224.05261	74.10086	-895.50629	-306.05704	1807.98547	-1024.69421	NaN	NaN	NaN	NaN	NaN	NaN
94	0.93	-172.72275	1753.34668	-1100.14246	-195.28427	1727.36157	-960.15991	-295.43918	1672.50977	-1134.31628	-329.1962	1643.89526	-997.22516	-353.32446	1527.3623	-1072.26001	-399.75607	1250.8042	-1072.55518	-212.8499	1462.83191	-1074.42346	-157.34091	1291.46313	-1066.45715	-413.32736	1351.55981	-1016.26123	-267.32834	1508.03064	-1247.06567	-235.30896	1315.12573	-1341.88586	-201.36778	1177.77209	-1364.18701	-143.16077	1058.16138	-1373.5105	-52.58835	961.65442	-1329.02954	-88.01641	948.14386	-1371.15015	-44.39009	898.70721	-1370.93091	-287.68631	1490.60791	-881.86597	-320.37003	1301.4325	-800.4892	-302.63242	1155.68188	-777.52844	-262.62213	1040.89868	-760.45514	-201.3015	920.24829	-782.83533	-247.05464	911.42352	-749.42731	-203.73149	852.83588	-749.61768	-166.48462	991.58203	-1202.44482	-165.34589	984.01587	-949.90625	-374.62903	1038.90063	-1121.24146	-379.5072	1036.3772	-1005.06744	-254.6944	678.37329	-1244.10413	-308.72141	480.23538	-1211.46533	-371.49451	295.47241	-1212.41833	-375.22803	72.23351	-1168.5481	-416.13422	46.08187	-1120.85217	-217.8242	32.61066	-1164.9873	-168.3873	687.30908	-863.6438	-110.93871	494.72406	-887.22083	-213.75424	340.55402	-897.41034	-295.34222	168.59706	-942.39429	-331.65894	121.6274	-1007.54254	-181.44978	70.61858	-898.18048	-291.78619	1807.97864	-1025.05627	NaN	NaN	NaN	NaN	NaN	NaN
95	0.94	-158.7039	1752.26953	-1100.33997	-181.93179	1725.83203	-960.50226	-281.93781	1672.38037	-1135.16174	-316.77747	1643.28479	-998.47217	-340.83612	1526.80579	-1073.2616	-387.64716	1250.2738	-1072.85657	-200.44356	1462.02588	-1075.42273	-145.20177	1290.54297	-1067.74597	-400.19574	1350.62036	-1017.36841	-254.75121	1507.73413	-1247.80811	-220.54323	1315.86707	-1343.48914	-183.254	1179.2627	-1366.26514	-120.72588	1061.59668	-1375.11279	-26.26824	969.05908	-1330.33557	-61.57649	953.66302	-1371.88232	-16.15265	905.75098	-1371.30029	-275.8999	1489.66833	-882.84998	-310.8479	1300.48279	-802.00043	-293.83795	1154.8584	-778.39899	-255.18275	1039.50281	-761.14337	-195.789	918.10876	-783.34894	-241.71204	909.91705	-749.70966	-198.74951	850.80658	-749.43494	-156.69417	989.60736	-1204.53992	-152.14316	983.07947	-951.68274	-363.68652	1038.37061	-1119.99658	-366.84338	1036.41272	-1003.88824	-249.72122	677.80975	-1244.22986	-305.76288	480.26215	-1211.11621	-370.45602	296.229	-1211.68469	-375.12521	72.72232	-1168.06055	-415.89764	46.67706	-1120.22229	-217.76505	32.52779	-1165.19385	-152.37071	688.53967	-863.94495	-92.8149	495.37335	-888.97882	-187.32927	335.1893	-899.52167	-258.65356	158.59645	-944.86243	-291.95596	109.57395	-1009.93188	-138.54585	67.70149	-900.77948	-277.86154	1807.61292	-1025.90051	NaN	NaN	NaN	NaN	NaN	NaN
96	0.95	-144.61517	1750.9425	-1100.62317	-168.63991	1724.24963	-960.78815	-268.42645	1671.80518	-1135.86975	-304.46423	1643.40442	-1000.22943	-328.17255	1526.13074	-1074.23328	-375.40607	1249.54712	-1072.87024	-187.93088	1461.02515	-1076.3501	-133.01335	1289.41187	-1069.02844	-388.65674	1350.13953	-1018.55725	-241.99397	1507.28064	-1248.63489	-205.87987	1316.25146	-1344.76917	-165.22346	1180.63171	-1368.29846	-98.70695	1065.07422	-1376.26575	-0.69362	976.26001	-1331.36023	-35.7304	959.19617	-1372.45862	11.39593	912.79065	-1371.51343	-263.5257	1488.43848	-883.80829	-299.51285	1299.97095	-803.2735	-284.10056	1153.89746	-779.4964	-247.40811	1038.10193	-761.51196	-189.49646	915.99054	-782.97681	-235.75465	908.54089	-749.901	-194.02014	848.80066	-749.38324	-146.95711	987.57837	-1206.40942	-138.81009	982.05835	-953.05798	-352.4931	1037.82422	-1118.73242	-354.21652	1036.17969	-1002.61035	-244.44955	677.23285	-1244.31921	-302.3656	480.21912	-1210.59985	-369.05353	296.91568	-1210.75574	-374.9176	73.14754	-1167.5448	-415.94547	47.52439	-1119.5155	-217.60506	32.30748	-1165.38818	-136.84245	689.31561	-864.14807	-75.23397	495.50031	-891.04877	-160.99576	329.68204	-901.521	-220.96011	148.84102	-946.74213	-252.03632	98.38625	-1011.51447	-95.52717	65.47608	-903.19342	-263.61066	1806.8999	-1026.18274	NaN	NaN	NaN	NaN	NaN	NaN
97	0.96	-130.66125	1749.3429	-1100.67224	-155.18161	1722.52563	-960.99084	-254.81395	1671.24976	-1136.55969	-290.60629	1642.43835	-1000.2403	-315.40808	1525.276	-1074.93396	-363.18286	1248.70081	-1072.67517	-175.33473	1459.81299	-1077.20276	-120.72029	1288.15771	-1070.24146	-375.71133	1349.01697	-1019.45929	-229.24681	1506.6543	-1249.39246	-191.35477	1316.40173	-1345.87354	-147.42766	1181.82703	-1369.94055	-76.95615	1068.32019	-1377.53687	24.39776	983.57733	-1332.37524	-10.44675	964.66406	-1372.93469	38.33892	919.89191	-1371.66687	-250.82567	1486.97559	-884.58502	-289.03781	1298.92749	-804.41168	-274.80786	1152.67749	-780.43732	-239.64989	1036.76746	-762.02911	-184.16049	913.57147	-783.12622	-229.94319	907.00616	-750.02954	-189.44908	846.57648	-749.27704	-137.09096	985.55798	-1208.05359	-125.28362	980.77484	-954.10468	-341.37482	1037.01807	-1117.37415	-341.53424	1035.70166	-1001.31696	-238.81158	676.5202	-1244.43835	-298.51904	480.1214	-1210.06091	-367.15417	297.57874	-1209.87878	-374.70911	73.57877	-1166.8584	-415.53394	47.88343	-1118.49695	-217.53955	32.29678	-1165.58264	-121.67067	689.55817	-864.39813	-58.74653	495.13309	-892.98871	-134.79781	324.09811	-903.50055	-183.73671	139.96007	-948.17957	-210.72038	87.1925	-1013.35016	-52.52614	64.20691	-905.40576	-249.38803	1805.74841	-1026.63977	NaN	NaN	NaN	NaN	NaN	NaN
